#!OML:ASF F:\VICON\USERDATA\INSTALL\rory3\rory3.ASF
:FULLY-SPECIFIED
:DEGREES
112
root -0.425671991284827 17.81377505972094 43.85354343146724 2.3100032189748307 4.275212907173831 -2.1577387977143756
lfemur -26.91805965734475 3.1251103362502404 -11.686896147324582
ltibia 60.71527396871551
lfoot 14.837537919070499 -19.197790702611172
ltoes -18.373714211750226
rfemur -18.60952866449285 2.8866522221301025 37.24961110439435
rtibia 7.1066568446519724
rfoot -17.288251238067776 -15.336093250052905
rtoes -13.061113646230458
lowerback 1.0 -1.4267957062431291 1.7789505058364348
upperback -1.0683007499677821 -0.775638461778883 3.455959286449353
thorax -7.451753199961491 -0.02215669061010911 2.1342279397448927
lowerneck -18.316632997629156 -2.616495495445002 -2.4086989831467744
upperneck 12.306792874097525 -3.767937328355967 -0.137717501454373
head 6.902754739830631 -1.9532905684288988 -0.1717231224886946
lclavicle 7.978328342425589e-15 -2.942560329780267e-14
lhumerus -58.35418726094166 -13.39734150889261 99.06080531002345
lradius 111.19003052338631
lwrist 51.13892325209591
lhand -30.92977481106618 2.1686726824527187
lfingers nan
lthumb -4.458920157108787 32.16728733517135
rclavicle 6.8433218050373516e-15 -2.7677403416390478e-14
rhumerus -47.944777514423514 5.234664079259728 -93.48730276934633
rradius 129.70453159000454
rwrist -12.355739344614637
rhand -24.062904014940624 1.0
rfingers nan
rthumb 2.3743387625013606 16.50946634768861
113
root -0.42466075949267895 17.831704519495283 44.00872337110528 2.314072455554405 4.115399216466967 -2.2005922975903087
lfemur -29.085968250574197 3.5548179836098566 -11.728856005215183
ltibia 59.45411020672083
lfoot 12.82371355209183 -18.37711277777896
ltoes -16.565757207596846
rfemur -16.640844486601637 2.89838780677006 37.61477616575935
rtibia 5.4129880411287274
rfoot -17.306776275054464 -14.735479749753669
rtoes -16.05311986184917
lowerback 1.0 -1.231204149397807 1.5372119857750897
upperback -1.0825783352992746 -0.5220868557039384 3.3800480729653968
thorax -6.872661393042913 0.08913457896101273 2.0272131406661944
lowerneck -18.558432646319005 -2.836094249297844 -2.3966161557178762
upperneck 13.149835051593112 -4.019698696492208 -0.04383476104037731
head 7.214742489735838 -2.0991671995057337 -0.19815976230258592
lclavicle 7.441630964643725e-15 1.0112864797423824e-14
lhumerus -58.85415569967478 -13.965727551684747 99.39577503082995
lradius 111.83606149346589
lwrist 51.25388553412934
lhand -31.38505507899113 1.4690574757815902
lfingers nan
lthumb -4.886210313765464 31.458433106987364
rclavicle 7.192378066299209e-15 1.1943806052606577e-14
rhumerus -48.05440012018124 4.95944952168454 -93.47744310514028
rradius 131.21897835462022
rwrist -17.18559116405079
rhand -23.74236363141671 1.0
rfingers nan
rthumb 2.6550262674076635 16.427227143352262
114
root -0.4035915477246199 17.855712718351054 44.032156770739284 2.209776012342012 4.338291478019728 -2.216131392736794
lfemur -31.167767731152658 3.5616583254514804 -11.928763764553063
ltibia 57.784251321136416
lfoot 10.9326270521249 -17.25917550170363
ltoes -16.57029751223221
rfemur -14.692201356320833 2.6881792966127587 38.01514606728267
rtibia 3.8502668550354144
rfoot -16.530020421817657 -14.01043469658861
rtoes -19.21628796955419
lowerback 1.0 -1.1585008233347946 1.7188578272333284
upperback -1.2532487649404918 -0.3461972304637695 3.2743600190276645
thorax -6.863350937108903 0.1327626157242081 1.8065270463953595
lowerneck -18.212915824482575 -3.0515275977910834 -2.379120970648721
upperneck 14.049282775608457 -4.284299698295333 0.06642564072065182
head 7.458439998080707 -2.262368594588348 -0.21757992097935686
lclavicle 8.473131682273254e-15 -3.1239238253891078e-15
lhumerus -59.40185047941138 -14.355277246979108 99.59549727897807
lradius 112.53684602350882
lwrist 51.05374290533407
lhand -30.95376139523156 2.2165078211930345
lfingers nan
lthumb -4.496426592534782 32.20587720475838
rclavicle 7.843040084249674e-15 -1.6605701863821029e-15
rhumerus -48.3735079108319 4.837566678839668 -93.60252534585275
rradius 132.65882164994446
rwrist -21.202215488604374
rhand -23.85890861119959 1.0
rfingers nan
rthumb 2.5530965391514435 16.474366667884006
115
root -0.369335460328866 17.911730040943553 43.70329511843232 2.6153991405259935 4.35351274475238 -1.9725200071908697
lfemur -33.32892107593368 3.6483447091339967 -12.769941663709863
ltibia 55.65262928434197
lfoot 9.08607763864728 -15.77633159654944
ltoes -18.229337387973516
rfemur -12.955219270762164 2.7594348456384394 37.770930881743226
rtibia 2.4266416954133163
rfoot -15.018383844046042 -13.12194079746796
rtoes -22.887439398080662
lowerback 1.0 -1.0103876781012076 1.6464074640156694
upperback -1.5265220133735526 -0.17195741017121313 3.0097099636790583
thorax -6.084722703984571 0.18875517561725152 1.5995397442268589
lowerneck -17.734486613886318 -3.2858826546913074 -2.335720534195195
upperneck 14.581297083581 -4.557539138090725 0.20238468748517224
head 7.548287860285876 -2.434770873958358 -0.2281409514812932
lclavicle 1.4120925560611318e-14 2.491971993765797e-14
lhumerus -59.954818322148064 -14.569380393631583 99.69266785513608
lradius 113.23709935450145
lwrist 51.1067311880752
lhand -29.55905451506016 2.2284344070621707
lfingers nan
lthumb -3.1885149816997993 32.21299486884576
rclavicle 1.4147396875946494e-14 2.6262476487208228e-14
rhumerus -48.86466218118283 4.858215721996671 -93.86767485445132
rradius 134.24137450824776
rwrist -24.20327984634264
rhand -24.833845216765486 1.0
rfingers nan
rthumb 1.6623149012246232 17.08577927236563
116
root -0.3326879741993722 17.996996958660965 42.86958627888879 3.4887835475590894 4.111023788284581 -2.0875014299698065
lfemur -35.35738492274354 3.6791949411119447 -13.527368548802828
ltibia 53.12051518399344
lfoot 7.662204706924506 -14.273159221694652
ltoes -20.069618586778837
rfemur -11.554605104816027 2.8071465612287154 37.444479668669985
rtibia 0.9054214958519253
rfoot -12.743442059614154 -11.78371356045666
rtoes -25.498586798913674
lowerback 1.0 -0.847712765739276 1.7360864252359325
upperback -1.8232080149201213 -0.06458144509239094 2.7332353351353547
thorax -4.5834435008228045 0.217465169571442 1.3395942626020716
lowerneck -18.248801641120686 -3.425206874051381 -2.2921105022113015
upperneck 15.280832440348957 -4.705668535766985 0.45919268012709047
head 7.835707243791956 -2.5334631831647836 -0.18522937381344995
lclavicle 3.005646996760459e-14 1.0371995091355728e-14
lhumerus -60.26125308306448 -14.484868202101069 99.5099474089269
lradius 113.75889732199654
lwrist 51.0669118396127
lhand -29.11943107546095 2.7797203911289685
lfingers nan
lthumb -2.799713412375534 32.75220492453348
rclavicle 2.958088663252327e-14 1.1427330801265159e-14
rhumerus -49.13374880577079 5.033493745622297 -94.10509282199781
rradius 135.36858367956847
rwrist -25.983843168326047
rhand -24.842692115375307 1.0
rfingers nan
rthumb 1.682471663106309 18.114527703571333
117
root -0.30064495098376487 18.098244781239803 43.20263809613597 3.1766311942101564 3.956907201988553 -2.4223088621501825
lfemur -36.536461864138296 3.4155343239909604 -13.907289086602901
ltibia 50.11030271154313
lfoot 6.095069262640045 -13.064870854115993
ltoes -23.62664527441897
rfemur -9.396017015229637 2.346796770907512 37.47965776668626
rtibia -0.6191551670938793
rfoot -9.827360891354283 -10.014505422506627
rtoes -27.047969204479045
lowerback 1.0 -0.7622149582318962 2.094941868020862
upperback -1.8983494067419966 0.04898354256897408 2.553448414176909
thorax -4.7611830206137284 0.2686133756301542 1.1522954116813777
lowerneck -17.976507780343887 -3.5158198390917144 -2.321350131417408
upperneck 15.732533791853903 -4.8044508868173805 0.8202124103263422
head 7.937187447114195 -2.601844109878678 -0.07800851936125908
lclavicle 1.6802395632973843e-14 3.3881149515450244e-15
lhumerus -60.56486075646027 -14.256155760572273 99.3034428305266
lradius 114.14997002758255
lwrist 50.83601977628959
lhand -30.131433274903973 4.995485014072112
lfingers nan
lthumb -3.792250666214864 34.980936865434415
rclavicle 1.6363568395238685e-14 4.44528690560889e-15
rhumerus -49.42367257152031 5.27239683631235 -94.2944006958774
rradius 136.1092227120837
rwrist -25.629331094230473
rhand -24.46293383888583 1.0
rfingers nan
rthumb 2.0526915605158518 17.42782876420516
118
root -0.3154009319112409 18.135606041993768 42.85008738637346 1.9050051175452027 3.7375541019387866 -2.174183255418977
lfemur -36.79541281564812 3.0881648593278648 -14.52027094428596
ltibia 46.43748510746981
lfoot 6.538039699454037 -12.422004916685719
ltoes -22.852364742242862
rfemur -6.494663836265882 1.7796296421013058 37.16278577210025
rtibia -2.3927610524408323
rfoot -6.217686503401481 -8.065322445974001
rtoes -27.364501985873364
lowerback 1.0 -0.6151986751184673 2.0483862822836536
upperback -1.7386374147529318 0.2579595757737081 2.3834542080262997
thorax -6.106044775881927 0.36622137190843845 1.0398584037185505
lowerneck -17.287731343346827 -3.644895061081711 -2.376024984579459
upperneck 16.236861537864034 -4.9305357846307825 0.9829567516569999
head 8.004524814181995 -2.6968204732969965 -0.03468950201912191
lclavicle 7.49865127639181e-16 1.656099422234439e-14
lhumerus -61.206485711149234 -13.821563941959873 99.21277787019278
lradius 114.63352740580083
lwrist 50.91810599915122
lhand -29.99296068487636 5.07465475878904
lfingers nan
lthumb -3.607567057381904 35.136298883223304
rclavicle 3.9441621897362136e-16 1.73363226553648e-14
rhumerus -49.93501190951303 5.4635095395833515 -94.32531476445689
rradius 136.75297681535383
rwrist -23.69329686840682
rhand -23.321538073471796 1.0
rfingers nan
rthumb 3.1260146028803755 14.685166245169183
119
root -0.2992023984855556 18.151908105685553 45.78543351858335 1.9056015168444544 4.033491858442731 -1.7736562980688355
lfemur -37.67600523854334 2.5706433714359216 -15.417819609377492
ltibia 42.831753515031394
lfoot 5.979559637337696 -11.359473482805836
ltoes -24.640282450103193
rfemur -4.717968698841224 1.2388161657722747 36.350026782489664
rtibia -4.135509843505197
rfoot -1.8831865201190454 -5.920087440110244
rtoes -26.706470359085618
lowerback 1.0 -0.5409235694595771 1.8086711721118147
upperback -1.8760761971059416 0.3314444505399967 2.15243925157259
thorax -5.933287314339433 0.39657785787475897 0.9419105738002672
lowerneck -17.258176977254664 -3.7033208709217607 -2.2599989891798153
upperneck 16.66256193754904 -4.960501289209209 0.9234780180400537
head 8.126890705368343 -2.753087668722963 -0.08826484894145636
lclavicle -7.997901856602964e-15 -1.6162987418749973e-14
lhumerus -61.75706340335819 -13.232236054784563 98.99357050422753
lradius 115.18192326713087
lwrist 51.56345109917522
lhand -28.185985721228988 2.476322143696107
lfingers nan
lthumb -1.8594203426044307 32.55395439073445
rclavicle -8.255252754319536e-15 -1.4909738814082394e-14
rhumerus -50.37810766736427 5.809523843789687 -94.35980856242303
rradius 137.25212714094067
rwrist -19.216394629998835
rhand -22.77660651141639 1.0
rfingers nan
rthumb 3.653904657455696 14.281338611053837
